<svg xmlns="http://www.w3.org/2000/svg" width="24" height="24" viewBox="0 0 24 24">
  <g id="Group_14319" data-name="Group 14319" transform="translate(-49 -337)">
    <rect id="Rectangle_9373" data-name="Rectangle 9373" width="24" height="24" rx="5" transform="translate(49 337)" fill="#00bf7a"/>
    <path id="ballot-check" d="M11.75,0H5.25A3.254,3.254,0,0,0,2,3.25v9.1A3.254,3.254,0,0,0,5.25,15.6h6.5A3.254,3.254,0,0,0,15,12.35V3.25A3.254,3.254,0,0,0,11.75,0ZM5.575,2.925A.975.975,0,1,1,4.6,3.9.975.975,0,0,1,5.575,2.925Zm0,9.75A.975.975,0,1,1,6.55,11.7.975.975,0,0,1,5.575,12.675Zm.887-3.886A1.067,1.067,0,0,1,5.7,9.1a1.087,1.087,0,0,1-.768-.317l-.443-.426a.65.65,0,1,1,.9-.937l.307.3,1.213-1.18a.65.65,0,1,1,.906.932L6.462,8.79ZM11.75,12.35H8.5a.65.65,0,1,1,0-1.3h3.25a.65.65,0,0,1,0,1.3Zm0-3.9H9.8a.65.65,0,1,1,0-1.3h1.95a.65.65,0,1,1,0,1.3Zm0-3.9H8.5a.65.65,0,1,1,0-1.3h3.25a.65.65,0,0,1,0,1.3Z" transform="translate(52.5 341.201)" fill="#fff"/>
  </g>
</svg>
