<svg xmlns="http://www.w3.org/2000/svg" width="20" height="20" viewBox="0 0 20 20">
  <g id="Group_16816" data-name="Group 16816" transform="translate(15541)">
    <rect id="Rectangle_9400" data-name="Rectangle 9400" width="20" height="20" rx="5" transform="translate(-15541)" fill="#fff"/>
    <g id="column" transform="translate(-15536.586 2.963)">
      <path id="Path_15758" data-name="Path 15758" d="M36,6h1.117V19.407H36Z" transform="translate(-25.945 -6)" fill="#017bfe"/>
      <path id="Path_15759" data-name="Path 15759" d="M21.352,7.117V18.29H19.117V7.117h2.235m0-1.117H19.117A1.117,1.117,0,0,0,18,7.117V18.29a1.117,1.117,0,0,0,1.117,1.117h2.235a1.117,1.117,0,0,0,1.117-1.117V7.117A1.117,1.117,0,0,0,21.352,6Z" transform="translate(-14.648 -6)" fill="#017bfe"/>
      <path id="Path_15760" data-name="Path 15760" d="M9,6h1.117V19.407H9Z" transform="translate(-9 -6)" fill="#017bfe"/>
    </g>
  </g>
</svg>
