<svg xmlns="http://www.w3.org/2000/svg" width="24" height="24" viewBox="0 0 24 24">
  <g id="Group_14318" data-name="Group 14318" transform="translate(-49 -285)">
    <rect id="Rectangle_9372" data-name="Rectangle 9372" width="24" height="24" rx="5" transform="translate(49 285)" fill="#00bf7a"/>
    <g id="address-book_1_" data-name="address-book (1)" transform="translate(52.432 288.618)">
      <path id="Path_16696" data-name="Path 16696" d="M14.764,2.238A.67.67,0,0,0,14.3,1.8,23.424,23.424,0,0,0,9.193,1a22.641,22.641,0,0,0-5.113.8.67.67,0,0,0-.466.467c-.008.03-.064.236-.143.577H2.958a1.007,1.007,0,0,0,0,2.013h.136c-.047.317-.092.655-.131,1.009H2.576a1.007,1.007,0,0,0,0,2.013h.25c0,.167-.006.335-.006.5s0,.338.006.5h-.25a1.007,1.007,0,0,0,0,2.013h.387c.039.354.084.693.131,1.009H2.957a1.007,1.007,0,1,0,0,2.013h.515c.079.342.134.546.143.576a.67.67,0,0,0,.457.465,21,21,0,0,0,5.122.8,21.026,21.026,0,0,0,5.121-.8.671.671,0,0,0,.45-.44,22.011,22.011,0,0,0,.8-6.142,21.976,21.976,0,0,0-.8-6.143ZM7.016,4.872A1.686,1.686,0,0,1,8.071,3.817a3.455,3.455,0,0,1,2.245,0,1.686,1.686,0,0,1,1.055,1.055,3.46,3.46,0,0,1,0,2.245,1.686,1.686,0,0,1-1.055,1.055,3.458,3.458,0,0,1-2.245,0A1.686,1.686,0,0,1,7.017,7.117a3.46,3.46,0,0,1,0-2.245Zm4.494,8.261a.671.671,0,0,1-.671-.671,1.646,1.646,0,0,0-3.291,0,.671.671,0,0,1-1.342,0,2.988,2.988,0,0,1,5.976,0A.671.671,0,0,1,11.51,13.133Z" transform="translate(0 0)" fill="#fff"/>
      <path id="Path_16697" data-name="Path 16697" d="M11.732,8.838a2.1,2.1,0,0,0,1.385,0,.334.334,0,0,0,.208-.208,2.106,2.106,0,0,0,0-1.386.332.332,0,0,0-.208-.208,2.1,2.1,0,0,0-1.385,0,.334.334,0,0,0-.208.208,2.106,2.106,0,0,0,0,1.386A.332.332,0,0,0,11.732,8.838Z" transform="translate(-3.231 -1.945)" fill="#fff"/>
    </g>
  </g>
</svg>
