<svg xmlns="http://www.w3.org/2000/svg" width="24" height="24" viewBox="0 0 24 24">
  <g id="Group_14324" data-name="Group 14324" transform="translate(-49 -597)">
    <rect id="Rectangle_9378" data-name="Rectangle 9378" width="24" height="24" rx="5" transform="translate(49 597)" fill="#017bfe"/>
    <path id="puzzle-piece-integration" d="M.006,5.989c0,.04,0-.041,0,0Zm15.122,7.122.962.554-.678,1.176-.957-.552a3.046,3.046,0,0,1-1.554.9v1.1H11.543v-1.1a3.038,3.038,0,0,1-1.554-.9l-.957.552-.678-1.176.962-.554a2.754,2.754,0,0,1,0-1.781l-.962-.554L9.032,9.6l.957.552a3.046,3.046,0,0,1,1.554-.9v-1.1H12.9v1.1a3.038,3.038,0,0,1,1.554.9l.957-.552.678,1.176-.962.554a2.754,2.754,0,0,1,0,1.781Zm-1.889-.891a1.018,1.018,0,1,0-1.018,1.018A1.02,1.02,0,0,0,13.239,12.22ZM10.863,6.967V4.074A2.039,2.039,0,0,0,8.827,2.038H7.7c.055-.352.11-.713.109-.735A1.357,1.357,0,1,0,5.1,1.424c.011.125.051.37.094.614H4.075A2.039,2.039,0,0,0,2.038,4.074V5.2c-.349-.054-.7-.109-.725-.108A1.332,1.332,0,0,0,.008,6.45,1.308,1.308,0,0,0,1.434,7.8c.124-.01.363-.05.6-.092V8.827a2.039,2.039,0,0,0,2.037,2.037H5.3a8.642,8.642,0,0,1-.206-1.358,1.355,1.355,0,0,1,2.665-.348,5.423,5.423,0,0,1,3.106-2.189Z" transform="translate(52.993 600.999)" fill="#fff"/>
  </g>
</svg>
