<svg xmlns="http://www.w3.org/2000/svg" width="24" height="24" viewBox="0 0 24 24">
  <g id="Group_14322" data-name="Group 14322" transform="translate(-49 -493)">
    <rect id="Rectangle_9376" data-name="Rectangle 9376" width="24" height="24" rx="5" transform="translate(49 493)" fill="#38bdf9"/>
    <path id="form" d="M11.528.2A3.259,3.259,0,0,1,12.761.96l1.086,1.088a3.25,3.25,0,0,1,.764,1.232H11.528ZM10.216,7.872H7.592a.656.656,0,1,0,0,1.312h2.624a.656.656,0,1,0,0-1.312Zm1.312-3.28A1.312,1.312,0,0,1,10.216,3.28V0H6.28A3.284,3.284,0,0,0,3,3.28v9.184a3.284,3.284,0,0,0,3.28,3.28h5.248a3.284,3.284,0,0,0,3.28-3.28V4.592Zm0,8.528H6.28a.656.656,0,1,1,0-1.312h5.248a.656.656,0,0,1,0,1.312ZM10.216,10.5H7.592a1.968,1.968,0,1,1,0-3.936h2.624a1.968,1.968,0,0,1,0,3.936Z" transform="translate(52.368 497.157)" fill="#fff"/>
  </g>
</svg>
