<svg xmlns="http://www.w3.org/2000/svg" width="24" height="24" viewBox="0 0 24 24">
  <g id="Group_14324" data-name="Group 14324" transform="translate(-49 -597)">
    <rect id="Rectangle_9378" data-name="Rectangle 9378" width="24" height="24" rx="5" transform="translate(49 597)" fill="#017bfe"/>
    <path id="function-process_1_" data-name="function-process (1)" d="M11.11,6.785a.679.679,0,0,0-.928-.25l-.386.222a2.373,2.373,0,0,0-.952-.545V5.761a.68.68,0,1,0-1.36,0v.451a2.378,2.378,0,0,0-.952.545l-.386-.222a.68.68,0,0,0-.679,1.179l.386.222a2.187,2.187,0,0,0,0,1.093l-.386.223a.68.68,0,1,0,.68,1.178l.386-.223a2.375,2.375,0,0,0,.951.545V11.2a.68.68,0,1,0,1.36,0v-.451a2.371,2.371,0,0,0,.951-.545l.386.223a.68.68,0,0,0,.679-1.178l-.386-.222a2.19,2.19,0,0,0,0-1.094l.386-.222a.679.679,0,0,0,.25-.929ZM8.163,9.5a1.02,1.02,0,1,1,1.02-1.02A1.022,1.022,0,0,1,8.163,9.5Zm6.122-3.07-.027,0-1.2-2.007a2.035,2.035,0,1,0-3.4-2.067H6.678a2.035,2.035,0,1,0-3.4,2.067l-1.2,2.007-.027,0a2.041,2.041,0,0,0,0,4.081h.016l1.216,2.026a2.035,2.035,0,1,0,3.4,2.067h2.97a2.035,2.035,0,1,0,3.4-2.067l1.216-2.026h.016a2.041,2.041,0,0,0,0-4.081Zm-2.443,5.479a1.977,1.977,0,0,0-.278-.028,2.034,2.034,0,0,0-1.915,1.36H6.678a2.034,2.034,0,0,0-1.915-1.36,2.083,2.083,0,0,0-.278.028L3.352,10.025a2.016,2.016,0,0,0,.007-3.1L4.484,5.053a1.977,1.977,0,0,0,.278.028A2.034,2.034,0,0,0,6.678,3.72h2.97a2.034,2.034,0,0,0,1.915,1.36,2.083,2.083,0,0,0,.278-.028l1.124,1.874a2.016,2.016,0,0,0,.007,3.1Z" transform="translate(52.998 601)" fill="#fff"/>
  </g>
</svg>
