<svg xmlns="http://www.w3.org/2000/svg" width="24" height="24" viewBox="0 0 24 24">
  <g id="Group_14321" data-name="Group 14321" transform="translate(-49 -441)">
    <rect id="Rectangle_9375" data-name="Rectangle 9375" width="24" height="24" rx="5" transform="translate(49 441)" fill="#fe408e"/>
    <g id="settings_1_" data-name="settings (1)" transform="translate(27.341 444)">
      <path id="Path_16774" data-name="Path 16774" d="M25.938,12.34a2.057,2.057,0,0,0,2.809.755h0l.305-.176a6.154,6.154,0,0,0,1.952,1.127V14.4a2.057,2.057,0,1,0,4.113,0v-.352a6.154,6.154,0,0,0,1.952-1.128l.306.177a2.058,2.058,0,0,0,2.057-3.565h0l-.3-.175a6.239,6.239,0,0,0,0-2.256l.3-.175a2.058,2.058,0,0,0-2.057-3.565l-.305.176a6.155,6.155,0,0,0-1.954-1.125V2.057a2.057,2.057,0,0,0-4.113,0v.352a6.154,6.154,0,0,0-1.952,1.128l-.306-.178A2.058,2.058,0,1,0,26.69,6.924h0l.3.175a6.239,6.239,0,0,0,0,2.256l-.3.175A2.061,2.061,0,0,0,25.938,12.34Zm7.125-6.856A2.742,2.742,0,1,1,30.32,8.227,2.742,2.742,0,0,1,33.063,5.485Z" transform="translate(0.898 0.998)" fill="#fff"/>
    </g>
  </g>
</svg>
