<svg xmlns="http://www.w3.org/2000/svg" width="24" height="24" viewBox="0 0 24 24">
  <g id="Group_14320" data-name="Group 14320" transform="translate(-49 -389)">
    <rect id="Rectangle_9374" data-name="Rectangle 9374" width="24" height="24" rx="5" transform="translate(49 389)" fill="#af70ef"/>
    <path id="user-gear" d="M5.432,7.243A3.621,3.621,0,1,1,9.053,3.621,3.625,3.625,0,0,1,5.432,7.243ZM13.7,11.548l-.588-.339a2.766,2.766,0,0,0,0-1.9l.588-.339a.6.6,0,0,0-.6-1.045l-.587.339A3,3,0,0,0,10.864,7.3V6.64a.6.6,0,1,0-1.207,0V7.3a3.008,3.008,0,0,0-1.643.962l-.587-.339a.6.6,0,1,0-.6,1.045l.588.339a2.766,2.766,0,0,0,0,1.9l-.588.339a.6.6,0,1,0,.6,1.045l.587-.339a3,3,0,0,0,1.643.962v.665a.6.6,0,1,0,1.207,0v-.665a3.008,3.008,0,0,0,1.643-.962l.587.339a.6.6,0,0,0,.6-1.045Zm-3.438-.383a.905.905,0,1,1,.905-.905A.906.906,0,0,1,10.26,11.166ZM4.828,10.26a5.411,5.411,0,0,1,.31-1.8A5.434,5.434,0,0,0,0,13.882a.6.6,0,0,0,.6.6H6.85A5.42,5.42,0,0,1,4.828,10.26Z" transform="translate(54 394)" fill="#fff"/>
  </g>
</svg>
