<svg xmlns="http://www.w3.org/2000/svg" width="24" height="24" viewBox="0 0 24 24">
  <g id="Group_14319" data-name="Group 14319" transform="translate(-49 -337)">
    <rect id="Rectangle_9373" data-name="Rectangle 9373" width="24" height="24" rx="5" transform="translate(49 337)" fill="#017bfe"/>
    <g id="lead-funnel" transform="translate(54 342)">
      <path id="Path_16698" data-name="Path 16698" d="M3.508,6.169H0A1.858,1.858,0,0,1,1.754,5,1.858,1.858,0,0,1,3.508,6.169Z" transform="translate(0 -2.084)" fill="#fff"/>
      <path id="Path_16699" data-name="Path 16699" d="M7.754,5A1.858,1.858,0,0,0,6,6.169H9.508A1.858,1.858,0,0,0,7.754,5Z" transform="translate(-2.503 -2.084)" fill="#fff"/>
      <path id="Path_16700" data-name="Path 16700" d="M13.754,5A1.858,1.858,0,0,0,12,6.169h3.508A1.858,1.858,0,0,0,13.754,5Z" transform="translate(-5.006 -2.084)" fill="#fff"/>
      <circle id="Ellipse_816" data-name="Ellipse 816" cx="1" cy="1" r="1" transform="translate(7.978)" fill="#fff"/>
      <circle id="Ellipse_817" data-name="Ellipse 817" cx="1" cy="1" r="1" transform="translate(3.989)" fill="#fff"/>
      <circle id="Ellipse_818" data-name="Ellipse 818" cx="1" cy="1" r="1" transform="translate(1)" fill="#fff"/>
      <path id="Path_16701" data-name="Path 16701" d="M19.324,13.664l-1.778-.3a.449.449,0,0,1-.377-.445.585.585,0,0,1,.585-.585H19.08a.587.587,0,0,1,.507.293.585.585,0,0,0,1.012-.586,1.76,1.76,0,0,0-1.519-.876h-.157v-.585a.585.585,0,0,0-1.169,0v.585A1.756,1.756,0,0,0,16,12.923a1.615,1.615,0,0,0,1.354,1.6l1.778.3a.449.449,0,0,1,.377.445.585.585,0,0,1-.585.585H17.6a.587.587,0,0,1-.507-.293.585.585,0,0,0-1.012.586,1.76,1.76,0,0,0,1.519.876h.157V17.6a.585.585,0,1,0,1.169,0v-.585a1.756,1.756,0,0,0,1.754-1.754A1.615,1.615,0,0,0,19.324,13.664Z" transform="translate(-6.678 -4.186)" fill="#fff"/>
      <path id="Path_16702" data-name="Path 16702" d="M8.186,12.509a2.928,2.928,0,0,1,1.79-2.695,1.737,1.737,0,0,1,.182-.479A1.183,1.183,0,0,0,9.335,9H1.19a1.19,1.19,0,0,0-.753,2.111L4.093,14.1v2.027a1.013,1.013,0,0,0,.446.84l1.058.714a.535.535,0,0,0,.835-.444V14.1L8.2,12.656c0-.049-.012-.1-.012-.147Z" transform="translate(0 -3.771)" fill="#fff"/>
      <path id="Path_16703" data-name="Path 16703" d="M19.324,13.664l-1.778-.3a.449.449,0,0,1-.377-.445.585.585,0,0,1,.585-.585H19.08a.587.587,0,0,1,.507.293.585.585,0,0,0,1.012-.586,1.76,1.76,0,0,0-1.519-.876h-.157v-.585a.585.585,0,0,0-1.169,0v.585A1.756,1.756,0,0,0,16,12.923a1.615,1.615,0,0,0,1.354,1.6l1.778.3a.449.449,0,0,1,.377.445.585.585,0,0,1-.585.585H17.6a.587.587,0,0,1-.507-.293.585.585,0,0,0-1.012.586,1.76,1.76,0,0,0,1.519.876h.157V17.6a.585.585,0,1,0,1.169,0v-.585a1.756,1.756,0,0,0,1.754-1.754A1.615,1.615,0,0,0,19.324,13.664Z" transform="translate(-6.678 -4.186)" fill="#fff"/>
    </g>
  </g>
</svg>
