<svg xmlns="http://www.w3.org/2000/svg" width="24" height="24" viewBox="0 0 24 24">
  <g id="Group_14318" data-name="Group 14318" transform="translate(-49 -285)">
    <rect id="Rectangle_9372" data-name="Rectangle 9372" width="24" height="24" rx="5" transform="translate(49 285)" fill="#00bf7a"/>
    <path id="employees" d="M10.763,4.921A2.46,2.46,0,1,1,8.3,7.381,2.46,2.46,0,0,1,10.763,4.921Zm-3.383,0A2.46,2.46,0,1,0,4.92,2.46,2.46,2.46,0,0,0,7.381,4.921ZM4,9.841a2.46,2.46,0,1,0-2.46-2.46A2.46,2.46,0,0,0,4,9.841Zm10.735,3.771a4.224,4.224,0,0,0-4.123-3.156,4.269,4.269,0,0,0-3.229,1.469,4.269,4.269,0,0,0-3.229-1.469A4.225,4.225,0,0,0,.028,13.612a.923.923,0,1,0,1.789.454,2.3,2.3,0,0,1,.9-1.306l.871,1.116a.724.724,0,0,0,1.131,0l.878-1.1a2.3,2.3,0,0,1,.885,1.295.922.922,0,0,0,1.789,0,2.3,2.3,0,0,1,.9-1.306l.871,1.116a.724.724,0,0,0,1.131,0l.878-1.1a2.3,2.3,0,0,1,.885,1.295.923.923,0,0,0,1.789-.454Z" transform="translate(53.619 289.619)" fill="#fff"/>
  </g>
</svg>
