<svg xmlns="http://www.w3.org/2000/svg" width="24" height="24" viewBox="0 0 24 24">
  <g id="Group_14323" data-name="Group 14323" transform="translate(-49 -545)">
    <rect id="Rectangle_9377" data-name="Rectangle 9377" width="24" height="24" rx="5" transform="translate(49 545)" fill="#ff8c22"/>
    <path id="answer-alt" d="M4.164,3.566l.682,2.85h-1.5L4,3.561c.006-.027.014-.063.079-.063s.073.036.081.069ZM14,2.331V9.326a2.335,2.335,0,0,1-2.333,2.331H10L7.759,13.511a1.132,1.132,0,0,1-.754.283,1.173,1.173,0,0,1-.78-.3l-2.186-1.84H2.333A2.335,2.335,0,0,1,0,9.326V2.331A2.335,2.335,0,0,1,2.333,0h9.333A2.335,2.335,0,0,1,14,2.331ZM6.569,8.608,5.3,3.3a1.248,1.248,0,0,0-2.432,0L1.641,8.613a.583.583,0,0,0,1.137.262l.3-1.292H5.124l.31,1.3A.584.584,0,0,0,6,9.327a.6.6,0,0,0,.136-.016.583.583,0,0,0,.432-.7Zm4.514-.448a.583.583,0,0,0-.583-.583H8.167a.583.583,0,1,0,0,1.166H10.5A.583.583,0,0,0,11.083,8.16ZM12.25,5.829a.583.583,0,0,0-.583-.583h-3.5a.583.583,0,1,0,0,1.166h3.5A.583.583,0,0,0,12.25,5.829Zm0-2.331a.583.583,0,0,0-.583-.583h-3.5a.583.583,0,1,0,0,1.166h3.5A.583.583,0,0,0,12.25,3.5Z" transform="translate(54 550)" fill="#fff"/>
  </g>
</svg>
