<svg xmlns="http://www.w3.org/2000/svg" width="24" height="24" viewBox="0 0 24 24">
  <g id="Group_14319" data-name="Group 14319" transform="translate(-49 -337)">
    <rect id="Rectangle_9373" data-name="Rectangle 9373" width="24" height="24" rx="5" transform="translate(49 337)" fill="#e9aa1a"/>
    <path id="ballot" d="M12.171,0H5.39A3.394,3.394,0,0,0,2,3.39v9.493a3.394,3.394,0,0,0,3.39,3.39h6.781a3.394,3.394,0,0,0,3.39-3.39V3.39A3.394,3.394,0,0,0,12.171,0ZM7.424,12.883a.678.678,0,0,1-.678.678H5.39a.678.678,0,0,1-.678-.678V11.527a.678.678,0,0,1,.678-.678H6.746a.678.678,0,0,1,.678.678Zm0-4.068a.678.678,0,0,1-.678.678H5.39a.678.678,0,0,1-.678-.678V7.459a.678.678,0,0,1,.678-.678H6.746a.678.678,0,0,1,.678.678Zm0-4.068a.678.678,0,0,1-.678.678H5.39a.678.678,0,0,1-.678-.678V3.39a.678.678,0,0,1,.678-.678H6.746a.678.678,0,0,1,.678.678Zm4.746,8.137H9.459a.678.678,0,0,1,0-1.356h2.712A.678.678,0,0,1,12.171,12.883Zm0-4.068H9.459a.678.678,0,0,1,0-1.356h2.712A.678.678,0,0,1,12.171,8.815Zm0-4.068H9.459a.678.678,0,0,1,0-1.356h2.712A.678.678,0,0,1,12.171,4.746Z" transform="translate(52.22 340.863)" fill="#fff"/>
  </g>
</svg>
