<svg xmlns="http://www.w3.org/2000/svg" width="24" height="24" viewBox="0 0 24 24">
  <g id="Group_14321" data-name="Group 14321" transform="translate(-49 -441)">
    <rect id="Rectangle_9375" data-name="Rectangle 9375" width="24" height="24" rx="5" transform="translate(49 441)" fill="#fe408e"/>
    <path id="form" d="M11.272.191a3.161,3.161,0,0,1,1.2.741l1.054,1.055a3.152,3.152,0,0,1,.741,1.195h-2.99ZM10,7.635H7.454a.636.636,0,1,0,0,1.273H10a.636.636,0,1,0,0-1.273Zm1.273-3.181A1.273,1.273,0,0,1,10,3.181V0H6.181A3.185,3.185,0,0,0,3,3.181v8.908a3.185,3.185,0,0,0,3.181,3.181h5.09a3.185,3.185,0,0,0,3.181-3.181V4.454Zm0,8.272H6.181a.636.636,0,1,1,0-1.273h5.09a.636.636,0,0,1,0,1.273ZM10,10.18H7.454a1.909,1.909,0,0,1,0-3.818H10a1.909,1.909,0,0,1,0,3.818Z" transform="translate(52.273 445.364)" fill="#fff"/>
  </g>
</svg>
