<svg xmlns="http://www.w3.org/2000/svg" width="24" height="24" viewBox="0 0 24 24">
  <g id="Group_18420" data-name="Group 18420" transform="translate(-49 -284)">
    <g id="Group_14318" data-name="Group 14318" transform="translate(0 -1)">
      <rect id="Rectangle_9372" data-name="Rectangle 9372" width="24" height="24" rx="5" transform="translate(49 285)" fill="#00bf7a"/>
      <path id="megaphone_1_" data-name="megaphone (1)" d="M13.416,9.333a.583.583,0,0,1-.26-.061l-1.167-.583a.584.584,0,1,1,.521-1.044l1.167.583a.583.583,0,0,1-.261,1.105ZM12.51,4.025l1.167-.583A.584.584,0,1,0,13.155,2.4l-1.167.583a.584.584,0,1,0,.521,1.044ZM14,5.833a.583.583,0,0,0-.583-.583H12.249a.583.583,0,1,0,0,1.167h1.167A.583.583,0,0,0,14,5.833Zm-3.5,5.25V.583a.583.583,0,1,0-1.167,0c0,1.72-1.507,2.333-2.916,2.333H2.333A2.333,2.333,0,0,0,0,5.25V6.416A2.333,2.333,0,0,0,2.333,8.749H6.416c1.41,0,2.916.613,2.916,2.333a.583.583,0,0,0,1.167,0ZM4.775,9.916H2.333a3.5,3.5,0,0,1-.806-.1l1.458,3.256A1.558,1.558,0,0,0,4.408,14a1.436,1.436,0,0,0,1.308-2.025Z" transform="translate(54 290)" fill="#fff"/>
    </g>
  </g>
</svg>
