<svg xmlns="http://www.w3.org/2000/svg" width="24" height="24" viewBox="0 0 24 24">
  <g id="Group_14319" data-name="Group 14319" transform="translate(-49 -337)">
    <rect id="Rectangle_9373" data-name="Rectangle 9373" width="24" height="24" rx="5" transform="translate(49 337)" fill="#017bfe"/>
    <path id="user-robot" d="M14.6,16.8H3.4a.7.7,0,0,1-.7-.7,4.2,4.2,0,0,1,4.2-4.2h4.2a4.2,4.2,0,0,1,4.2,4.2A.7.7,0,0,1,14.6,16.8Zm.35-12.6H14.6a2.8,2.8,0,0,0-2.8-2.8H9.7V.7A.7.7,0,1,0,8.3.7v.7H6.2A2.8,2.8,0,0,0,3.4,4.2H3.05A1.051,1.051,0,0,0,2,5.25v1.4A1.051,1.051,0,0,0,3.05,7.7H3.4a2.8,2.8,0,0,0,2.8,2.8h5.6a2.8,2.8,0,0,0,2.8-2.8h.35A1.051,1.051,0,0,0,16,6.65V5.25A1.051,1.051,0,0,0,14.95,4.2ZM7.25,7A1.05,1.05,0,1,1,8.3,5.95,1.05,1.05,0,0,1,7.25,7Zm3.5,0A1.05,1.05,0,1,1,11.8,5.95,1.05,1.05,0,0,1,10.75,7Z" transform="translate(52 341)" fill="#fff"/>
  </g>
</svg>
