<svg xmlns="http://www.w3.org/2000/svg" width="24" height="24" viewBox="0 0 24 24">
  <g id="Group_14319" data-name="Group 14319" transform="translate(-49 -337)">
    <rect id="Rectangle_9373" data-name="Rectangle 9373" width="24" height="24" rx="5" transform="translate(49 337)" fill="#fe408e"/>
    <path id="user-key" d="M4.667,7a3.5,3.5,0,1,1,3.5-3.5A3.5,3.5,0,0,1,4.667,7Zm6.6-1.161A2.992,2.992,0,0,0,8.437,7.617a2.588,2.588,0,0,0-.1,2.08.914.914,0,0,0-.171.511c0,.583-.013.875-.013.875H7.57a.584.584,0,0,0-.583.583v.583h-.57a.584.584,0,0,0-.583.583v.583A.584.584,0,0,0,6.417,14h.453a1.167,1.167,0,0,0,.825-.342l2.232-2.232a2.916,2.916,0,1,0,1.337-5.587Zm.4,3.2a.875.875,0,1,1,.875-.875A.875.875,0,0,1,11.667,9.042Zm-7,4.375v-.583a1.752,1.752,0,0,1,1.228-1.67A1.757,1.757,0,0,1,7.01,10.009,2.031,2.031,0,0,1,7.1,9.6a3.838,3.838,0,0,1-.085-.791A4.658,4.658,0,0,0,0,12.833v.583A.583.583,0,0,0,.583,14H4.774A1.73,1.73,0,0,1,4.667,13.417Z" transform="translate(54.867 341.367)" fill="#fff"/>
  </g>
</svg>
