<svg id="Component_388_17" data-name="Component 388 – 17" xmlns="http://www.w3.org/2000/svg" width="121.682" height="43" viewBox="0 0 121.682 43">
  <text id="Exkoo" transform="translate(35.682 32)" fill="#017bfe" font-size="30" font-family="SegoeUI-Light, Segoe UI" font-weight="300"><tspan x="0" y="0">Ex</tspan><tspan y="0" font-family="SegoeUI-Bold, Segoe UI" font-weight="700">koo</tspan></text>
  <g id="Group_14316" data-name="Group 14316" transform="translate(-37.318 -27.318)">
    <g id="Artboard" transform="translate(37.318 34.318)">
      <path id="Path_16704" data-name="Path 16704" d="M14.682,0A14.682,14.682,0,1,0,29.363,14.682,14.682,14.682,0,0,0,14.682,0Zm6.8,9.985c-.22,2.321-1.177,7.955-1.663,10.555-.206,1.1-.612,1.469-1,1.5-.853.078-1.5-.564-2.326-1.1-1.292-.847-2.022-1.374-3.276-2.2-1.45-.956-.51-1.48.316-2.338.217-.225,3.973-3.642,4.046-3.952a.3.3,0,0,0-.069-.259.339.339,0,0,0-.3-.029q-.195.044-6.193,4.093a2.792,2.792,0,0,1-1.593.588A10.416,10.416,0,0,1,7.14,16.3c-.919-.3-1.65-.458-1.587-.964q.05-.4,1.091-.811,6.42-2.8,8.562-3.689c4.078-1.7,4.924-1.991,5.477-2C21.376,8.826,21.543,9.4,21.487,9.985Z" fill="#017bfe" fill-rule="evenodd"/>
    </g>
    <path id="Path_16705" data-name="Path 16705" d="M-20948.273-11141.225v5.129l8.145-2.263" transform="translate(20994 11191)" fill="none" stroke="#fff" stroke-linecap="round" stroke-linejoin="round" stroke-width="1"/>
  </g>
</svg>
